HIERARCHY
ROOT Hips
{
	OFFSET -14.64140 90.27770 -84.91600
	CHANNELS 6 Xposition Yposition Zposition Zrotation Xrotation Yrotation
	JOINT Spine
	{
		OFFSET 0.00000 13.20850 -1.60436
		CHANNELS 3 Zrotation Xrotation Yrotation
		JOINT Spine1
		{
			OFFSET 0.00000 8.61716 0.00000
			CHANNELS 3 Zrotation Xrotation Yrotation
			JOINT Spine2
			{
				OFFSET 0.00000 8.61717 0.00000
				CHANNELS 3 Zrotation Xrotation Yrotation
				JOINT Spine3
				{
					OFFSET 0.00000 8.61717 0.00000
					CHANNELS 3 Zrotation Xrotation Yrotation
					JOINT Neck
					{
						OFFSET 0.00000 11.07920 1.10792
						CHANNELS 3 Zrotation Xrotation Yrotation
						JOINT Neck1
						{
							OFFSET 0.00000 7.08032 0.00000
							CHANNELS 3 Zrotation Xrotation Yrotation
							JOINT Head
							{
								OFFSET 0.00000 7.08031 0.00000
								CHANNELS 3 Zrotation Xrotation Yrotation
								End site
								{
									OFFSET 0.00000 0.00000 0.00000
								}
							}
						}
					}
					JOINT RightShoulder
					{
						OFFSET -0.01000 7.91373 5.19711
						CHANNELS 3 Zrotation Xrotation Yrotation
						JOINT RightArm
						{
							OFFSET -18.41580 0.00000 0.00000
							CHANNELS 3 Zrotation Xrotation Yrotation
							JOINT RightForeArm
							{
								OFFSET -29.11090 0.00000 0.00000
								CHANNELS 3 Zrotation Xrotation Yrotation
								JOINT RightHand
								{
									OFFSET -24.65040 0.00000 0.00000
									CHANNELS 3 Zrotation Xrotation Yrotation
									JOINT RightHandThumb1
									{
										OFFSET -5.35114 -0.85590 3.97906
										CHANNELS 3 Zrotation Xrotation Yrotation
										JOINT RightHandThumb2
										{
											OFFSET -4.52789 0.00000 0.00000
											CHANNELS 3 Zrotation Xrotation Yrotation
											JOINT RightHandThumb3
											{
												OFFSET -2.46976 0.00000 0.00000
												CHANNELS 3 Zrotation Xrotation Yrotation
												End site
												{
													OFFSET 0.00000 0.00000 0.00000
												}
											}
										}
									}
									JOINT RightHandIndex1
									{
										OFFSET -14.26970 0.00000 2.88139
										CHANNELS 3 Zrotation Xrotation Yrotation
										JOINT RightHandIndex2
										{
											OFFSET -5.48836 0.00000 0.00000
											CHANNELS 3 Zrotation Xrotation Yrotation
											JOINT RightHandIndex3
											{
												OFFSET -3.01859 0.00000 0.00000
												CHANNELS 3 Zrotation Xrotation Yrotation
												End site
												{
													OFFSET 0.00000 0.00000 0.00000
												}
											}
										}
									}
									JOINT RightHandMiddle1
									{
										OFFSET -14.26970 0.00000 -0.09147
										CHANNELS 3 Zrotation Xrotation Yrotation
										JOINT RightHandMiddle2
										{
											OFFSET -6.17441 0.00000 0.00000
											CHANNELS 3 Zrotation Xrotation Yrotation
											JOINT RightHandMiddle3
											{
												OFFSET -3.56743 0.00000 0.00000
												CHANNELS 3 Zrotation Xrotation Yrotation
												End site
												{
													OFFSET 0.00000 0.00000 0.00000
												}
											}
										}
									}
									JOINT RightHandRing1
									{
										OFFSET -12.69180 0.00000 -3.06433
										CHANNELS 3 Zrotation Xrotation Yrotation
										JOINT RightHandRing2
										{
											OFFSET -5.62556 0.00000 0.00000
											CHANNELS 3 Zrotation Xrotation Yrotation
											JOINT RightHandRing3
											{
												OFFSET -3.56744 0.00000 0.00000
												CHANNELS 3 Zrotation Xrotation Yrotation
												End site
												{
													OFFSET 0.00000 0.00000 0.00000
												}
											}
										}
									}
									JOINT RightHandPinky1
									{
										OFFSET -11.11390 0.00000 -6.03719
										CHANNELS 3 Zrotation Xrotation Yrotation
										JOINT RightHandPinky2
										{
											OFFSET -4.52789 0.00000 0.00000
											CHANNELS 3 Zrotation Xrotation Yrotation
											JOINT RightHandPinky3
											{
												OFFSET -2.46976 0.00000 0.00000
												CHANNELS 3 Zrotation Xrotation Yrotation
												End site
												{
													OFFSET 0.00000 0.00000 0.00000
												}
											}
										}
									}
								}
							}
						}
					}
					JOINT LeftShoulder
					{
						OFFSET 0.01000 7.91373 5.19711
						CHANNELS 3 Zrotation Xrotation Yrotation
						JOINT LeftArm
						{
							OFFSET 18.41580 0.00000 0.00000
							CHANNELS 3 Zrotation Xrotation Yrotation
							JOINT LeftForeArm
							{
								OFFSET 29.11090 0.00000 0.00000
								CHANNELS 3 Zrotation Xrotation Yrotation
								JOINT LeftHand
								{
									OFFSET 24.65040 0.00000 0.00000
									CHANNELS 3 Zrotation Xrotation Yrotation
									JOINT LeftHandThumb1
									{
										OFFSET 5.35114 -0.85590 3.97906
										CHANNELS 3 Zrotation Xrotation Yrotation
										JOINT LeftHandThumb2
										{
											OFFSET 4.52789 0.00000 0.00000
											CHANNELS 3 Zrotation Xrotation Yrotation
											JOINT LeftHandThumb3
											{
												OFFSET 2.46977 0.00000 0.00000
												CHANNELS 3 Zrotation Xrotation Yrotation
												End site
												{
													OFFSET 0.00000 0.00000 0.00000
												}
											}
										}
									}
									JOINT LeftHandIndex1
									{
										OFFSET 14.26970 0.00000 2.88139
										CHANNELS 3 Zrotation Xrotation Yrotation
										JOINT LeftHandIndex2
										{
											OFFSET 5.48836 0.00000 0.00000
											CHANNELS 3 Zrotation Xrotation Yrotation
											JOINT LeftHandIndex3
											{
												OFFSET 3.01859 0.00000 0.00000
												CHANNELS 3 Zrotation Xrotation Yrotation
												End site
												{
													OFFSET 0.00000 0.00000 0.00000
												}
											}
										}
									}
									JOINT LeftHandMiddle1
									{
										OFFSET 14.26970 0.00000 -0.09147
										CHANNELS 3 Zrotation Xrotation Yrotation
										JOINT LeftHandMiddle2
										{
											OFFSET 6.17440 0.00000 0.00000
											CHANNELS 3 Zrotation Xrotation Yrotation
											JOINT LeftHandMiddle3
											{
												OFFSET 3.56744 0.00000 0.00000
												CHANNELS 3 Zrotation Xrotation Yrotation
												End site
												{
													OFFSET 0.00000 0.00000 0.00000
												}
											}
										}
									}
									JOINT LeftHandRing1
									{
										OFFSET 12.69180 0.00000 -3.06433
										CHANNELS 3 Zrotation Xrotation Yrotation
										JOINT LeftHandRing2
										{
											OFFSET 5.62556 0.00000 0.00000
											CHANNELS 3 Zrotation Xrotation Yrotation
											JOINT LeftHandRing3
											{
												OFFSET 3.56744 0.00000 0.00000
												CHANNELS 3 Zrotation Xrotation Yrotation
												End site
												{
													OFFSET 0.00000 0.00000 0.00000
												}
											}
										}
									}
									JOINT LeftHandPinky1
									{
										OFFSET 11.11390 0.00000 -6.03719
										CHANNELS 3 Zrotation Xrotation Yrotation
										JOINT LeftHandPinky2
										{
											OFFSET 4.52789 0.00000 0.00000
											CHANNELS 3 Zrotation Xrotation Yrotation
											JOINT LeftHandPinky3
											{
												OFFSET 2.46976 0.00000 0.00000
												CHANNELS 3 Zrotation Xrotation Yrotation
												End site
												{
													OFFSET 0.00000 0.00000 0.00000
												}
											}
										}
									}
								}
							}
						}
					}
					JOINT pCube4
					{
						OFFSET 0.00000 10.91090 1.10792
						CHANNELS 3 Zrotation Xrotation Yrotation
						End site
						{
							OFFSET 0.00000 0.00000 0.00000
						}
					}
				}
			}
		}
	}
	JOINT RightUpLeg
	{
		OFFSET -9.98441 0.00000 0.00000
		CHANNELS 3 Zrotation Xrotation Yrotation
		JOINT RightLeg
		{
			OFFSET 0.00000 -42.11790 0.00000
			CHANNELS 3 Zrotation Xrotation Yrotation
			JOINT RightFoot
			{
				OFFSET 0.00000 -45.00020 -0.00001
				CHANNELS 3 Zrotation Xrotation Yrotation
				JOINT RightForeFoot
				{
					OFFSET 0.00000 -3.74820 0.00000
					CHANNELS 3 Zrotation Xrotation Yrotation
					JOINT RightToeBase
					{
						OFFSET 0.00000 0.06325 14.43120
						CHANNELS 3 Zrotation Xrotation Yrotation
						End site
						{
							OFFSET 0.00000 0.00000 0.00000
						}
					}
				}
			}
		}
	}
	JOINT LeftUpLeg
	{
		OFFSET 9.98441 0.00000 0.00000
		CHANNELS 3 Zrotation Xrotation Yrotation
		JOINT LeftLeg
		{
			OFFSET 0.00000 -42.11800 0.00000
			CHANNELS 3 Zrotation Xrotation Yrotation
			JOINT LeftFoot
			{
				OFFSET 0.00000 -45.00070 0.00000
				CHANNELS 3 Zrotation Xrotation Yrotation
				JOINT LeftForeFoot
				{
					OFFSET 0.00000 -3.74824 0.00000
					CHANNELS 3 Zrotation Xrotation Yrotation
					JOINT LeftToeBase
					{
						OFFSET 0.00000 0.06325 14.43110
						CHANNELS 3 Zrotation Xrotation Yrotation
						End site
						{
							OFFSET 0.00000 0.00000 0.00000
						}
					}
				}
			}
		}
	}
}
MOTION
Frames: 4
Frame Time: 0.050000
-0.008379860310952223 -0.013039634011130584 0.02368456439527364 0.029650022932688605 0.026987784327529712 0.02115925082829231 -3.1642920171076487 -0.6595738006252013 -0.7464396579854303 -1.0215211180497272 3.6059884282978527 0.37825438873519457 -1.2480700493804326 -2.222784851946859 -1.3773000709822765 -0.012303837468469544 0.25104751659861074 -0.8458058785764317 -0.6119923764089019 13.282889959607894 1.8243618951832736 -0.09367441625049215 0.9175323468989801 2.4568962572629442 -0.6046249761912051 -13.035809167093714 0.2106686710376075 -4.9093831936947385 1.7331119810116031 -13.85821116474229 66.73391919005523 11.232176986157722 15.285370351502145 27.106518317480276 -0.9571411602139983 83.78888608568994 16.445929922671702 -0.4054119171599014 -3.1384587870667726 4.553806299814234 -0.1476033195957604 -1.613640879623858 0.006876848824008332 -0.03992433922153746 -56.24137464271607 -0.012377165847271008 0.02097687014135273 -56.27379048107764 -38.75118258937272 0.014496180606120932 0.029780692939923612 -0.0022921606551388183 0.009566684951316186 -0.045377455682862604 -0.049046883363566995 0.006309197220747221 0.02202789965454107 -36.67851433660637 -0.008855936949714564 -0.009717039543634322 -0.0047068437143140684 0.021200317100187507 -0.027938077689709115 0.031192677577547716 -0.014602020755818772 0.018314369289371427 -19.732270661680264 0.005274100429541194 0.004135672818893074 0.03438762246023334 0.011281513766001205 -0.03855046402395671 0.028071001650634777 0.014894325259280838 0.0030651901137474114 24.036215324176254 0.01168141047366096 0.047606176409910286 28.88058521437885 0.0033311466885723915 -0.003675776791315579 28.890911572578457 0.014903377726410406 -0.04443253589360768 7.328778987968646 1.5025498192880067 12.714544347504983 -67.93439023699408 5.622262384623695 -17.950325969434388 -22.17450494761658 -15.212434379549991 -49.10246191152934 -3.7153539667249156 -0.33482458391003855 0.0674035503138737 -0.46618069515850097 0.067620235340325 -8.12873362634941 -0.0006581003434006067 0.03661110692102612 44.53205679218252 0.03683569422075729 0.04257061035872165 44.54149329716925 12.506442002628392 -0.03698612030817536 0.03183528513831788 -0.036466912150256305 0.0147570174998959 0.03303063496000744 -0.02276547785146696 0.04858361072126603 0.008972474282157345 11.068541472222705 0.04143332270062355 -0.010551521258799483 -0.01831852707663846 -0.03374857125350151 -0.007435976482554618 -0.01198006345144443 0.04198391688418358 -0.014756651848891411 4.779668446707959 -0.022963965116057954 0.031098551199658254 -0.027649446258942095 -0.024223734157713176 -0.02344090011717502 -0.01580830216642812 0.040190721946418 -0.010724846653961513 -5.613397847673315 -0.04232126168534125 0.026776949935637163 -6.740505042835263 0.008770270017301428 0.048368303155228956 -6.682300432242265 0.014197839500372001 -0.004817476854346016 -0.01492355467689836 -0.034829983039411115 -0.03653245826987265 8.047541311476655 3.5389439841951984 -19.2557676056228 -0.030320045907370703 10.399055088083479 0.0053426769485636315 -5.60538019161314 -15.617644383502943 3.2013126341925657 0.009070844047279192 2.5125317126462786e-05 0.013683950724541611 0.04504132297303077 4.693989915089699 -0.03262502272973887 12.467903561956177 -8.214673172712294 6.851957121925671 -0.03151157489975043 46.373833771841134 -0.038939567766412025 -4.3500541323205955 -14.724473981447382 -3.8411948336114805 0.0011310284747362233 -0.016692095003317052 -0.03249170906531655 0.006528117777990796 -10.763925366382368 0.027478338061332503 
0.018948058087455023 0.03698890611187276 0.01668942034486863 0.006722357294154187 -0.0070148028581622475 -0.031420553509797305 -2.915130051800638 -0.74932736902472 -0.7202445930389716 -1.0646155432594542 3.586289021765366 0.38927380132285666 -1.187512172295209 -2.229951745090678 -1.8801691423605493 0.11300138073041864 0.25350168648577753 -0.9236584508251938 -0.7655367409624825 13.128670549832743 2.0086476269799807 -0.20119589667562351 0.7800404189350549 3.1415487755017595 -0.7894255130806762 -13.392365150680714 0.2819898269009262 -4.75715804217133 1.6761408821888748 -14.261831717681638 67.07289947777873 9.529798610203661 12.271525516201669 28.631041968767583 -1.5002623510917144 85.89810987616774 15.843775033078343 -0.43384222465165095 -3.065704423306264 4.508920955698232 -0.14713874525914963 -1.639322732069138 -0.00612255737459216 0.03172075144786129 -56.21320363326838 0.024745031628608506 0.04008349470964185 -56.22866744189608 -38.7841560497379 0.02025294438944538 -0.037568822881522954 0.03416118003975464 0.012862574263747638 0.008692428809099623 -0.008726273334111231 -0.0033949600045877024 -0.03426675833850478 -36.68689735170646 0.045789822234599376 0.020350584985763958 -0.027811715361397052 -0.021688891463988946 -0.03408868578098854 0.03814713232940616 -0.036170172071245246 -0.04688718663915831 -19.729016359546705 -0.016461844133713127 -0.03541095501918216 0.024402499361530272 0.037128396120376675 -0.0036736963702480754 0.014780644012661099 0.015372750369206422 0.008280106724579385 24.064912260953705 0.013923964062185764 -0.022785866232908673 28.87501311590786 0.00596096378869843 0.0021786731751957168 28.902240509366244 0.02149187677635028 0.013508700540453823 7.8210257303035595 1.6470352120983658 12.763106562726001 -68.54010474120918 2.348650757375249 -18.753937675069192 -24.099776574594888 -15.56543760438344 -50.33286199493735 -1.6712335069082191 -0.3197469555061518 -0.40502562460061664 -0.4760102304518932 0.0856449377842637 -8.124892118548553 -0.03932451816302278 -0.03883011276600612 44.570195377978045 0.03656646627061253 -0.012280446189194777 44.60920726592324 12.485255800402761 0.042949942295465546 -0.021272054120301295 3.0764230575243366e-05 0.022795311990574073 0.01012719954262123 0.04025258911097827 0.0037933415430143726 0.00916714696219447 11.150748712305626 -0.013861041531469609 0.03397355157500756 -0.02380744775677115 0.0016438711763847788 0.03898539432443253 -0.011903441149170184 -0.013446093892686029 -0.01617226246690697 4.776766092368325 -0.03513247090134886 0.0059532970114042705 0.014643655416956235 -0.03190467711409338 -0.0033412586781719038 -0.031020338603430404 0.0010803012613179548 -0.02711678491617667 -5.620420395202364 -0.028393350433654374 -0.02252926403529452 -6.683443527235324 0.035828334670722654 0.03308704506111376 -6.693307666917458 0.007812130503368687 -0.016145054370942425 0.010893545893339626 -0.04188341472897564 -0.018577658052324666 8.039109650701253 3.4602906784876093 -19.2068193641671 0.04133112400414153 10.388249693818068 -0.030698121438602375 -5.663156055429431 -15.666465506888619 3.156069289973421 -0.020616064496294457 -0.004262777012206247 0.005720479336298992 0.0013836517397129522 4.659201657234962 0.009979710725875187 12.416850923595575 -8.201870042345636 6.902108288001408 -0.04627218241242699 46.378929129937795 0.007799814592313917 -4.353270631119917 -14.755990175550496 -3.811169924756114 -0.033790290223023045 0.016033114837360866 0.023345029804055298 -0.03550669582208336 -10.783586010371843 -0.022787736622124157 
-0.003101680483658268 -0.03591201448811328 0.017745942182028948 -0.024093279483937077 -0.035193108919229936 -0.03174617981741769 -2.7681085697035366 -0.6631777052044916 -0.7661405442688729 -1.071207916280692 3.5722115446271543 0.32947269249684297 -1.1784505017279998 -2.1462638162454346 -2.208409804847685 0.2129736069168539 0.20544180799863762 -0.997540308659449 -0.8250905677558131 12.88054714030218 2.0429446334968193 -0.2406133570453832 0.5082927987713048 3.705833325251942 -0.9295284505405657 -13.813279887345688 0.30674095383249306 -4.634850673433274 1.6143450585511 -14.7066266258304 67.7597043000672 8.483109571131978 9.081363302812852 29.23478997816129 -2.1947137140948847 87.99334087838906 15.562039370943218 -0.43150303647400734 -2.9833595484398003 4.537452478555234 -0.0993139302093309 -1.6118242185048872 0.014449201591756979 -0.04223862178266695 -56.25840665990138 -0.022815188867042334 0.03523444929837777 -56.24091448453433 -38.778265282991725 0.021268094654200227 0.029999243009268338 0.010019778314117688 -0.01742311212283225 -0.02995796676296026 -0.04155830589514852 0.009475868039165673 0.030005193457174423 -36.68444240803842 0.01978586718873392 0.02264210994739301 0.009874492788163622 0.04055454513097454 -0.0028832707086143207 -0.04874569503497246 -0.02678902451734358 -0.024898241467334038 -19.80039100209757 -0.03040223927969614 0.03269489179061283 0.034238039150417815 -0.03874224639024735 0.03796717248862709 0.038160562299798646 -0.021867809568936972 0.04060131358062031 24.068824502189084 0.025745878720803566 -0.002404332155378368 28.890504433137878 -0.01655455124217678 -0.006703009587252505 28.842928905822713 0.03624550694551466 0.03890600497166924 8.109233856797292 1.7189537375139146 12.839372940648026 -69.39932432978596 0.9282836109973891 -18.314313334852425 -25.492698977061867 -15.265463519953952 -51.78902060927807 -0.26980670219681513 -0.20201138874170038 -0.7832373153618816 -0.4979678616858936 0.09417144711342543 -8.127352516815076 0.038500014802553 -0.034080184289800204 44.5316568209746 0.03244816352124656 -0.027268513750317865 44.59326147128882 12.465164315023834 -0.009677575751764911 -0.005653108436535765 -0.003237557160687966 -0.027091647167368414 -0.043769424969388196 0.0033711051324556503 0.038414178743398475 -0.023305472755026903 11.10676002872545 -0.013258645639212138 0.033704375673037065 0.0306567261868393 0.03917341316289692 0.03929426301115844 0.012289174377996294 -0.018182385685095368 -0.0404132426411859 4.806073919393841 0.02493697519043298 0.011602647013078513 0.021234652660111764 0.0001811872353253386 0.0390495573774129 0.004222233471814247 -0.0087197654446087 0.010218196837853081 -5.635428840159818 -0.015909989493419482 0.044796753596016876 -6.755431614339527 0.04734478153846639 0.02587077760318233 -6.695222989661523 0.02251190063139709 0.009225259388359433 -0.027203494862558616 -0.025534234569897625 -0.0342743680349634 7.995462642679145 3.4524895200040815 -19.26867558609094 -0.03738455041669816 10.372080235404596 0.03515084503909313 -5.611536759045192 -15.675673902240051 3.171847886910014 -0.01887960447255888 -0.034499093415310426 -0.03917093476537591 0.009620355587007903 4.70149091752458 -0.022193832140723485 12.470496400689685 -8.23285291540697 6.867231948738205 0.040634616006542494 46.40625460571865 -0.02969759671872854 -4.343143459295259 -14.765718104241698 -3.8006265446355174 -0.01847467651602284 -0.048732619088164286 0.037400012180274736 0.035839503033670554 -10.750721501485764 -0.026610685391544393 
-0.008845491431928938 0.009551705659530172 -0.024207379932134548 -0.04597262151554765 -0.023029446852476695 -0.04206662263288359 -2.632680721565814 -0.5840333398030676 -0.799440343232295 -1.0435187117461373 3.5931065503272737 0.33564687470625426 -1.1462148645858494 -2.168011408022293 -2.476861825826801 0.301256403100578 0.2124077231556637 -0.982506209699251 -0.8792574510613725 12.687359063433025 2.172435489958863 -0.2869886397762365 0.27787773445354835 4.084164477279839 -0.9571651406729302 -14.178852086818475 0.3804518726762761 -4.579862440328319 1.6319318113468788 -15.107043255442054 68.48606920922487 8.265552667104947 6.250566568798512 28.628594252913665 -2.6935151142062974 89.25772724678791 15.545541174452495 -0.4624694092189698 -2.8481465934117187 4.493491734555312 -0.14607344985426968 -1.5437146325901323 -0.04226575924134849 -0.04716308534364497 -56.203186570839165 0.026931111672544784 -0.01646734793010841 -56.198960346863046 -38.747270822637695 -0.003886515850379782 0.013351314837175554 0.035939261495021683 -0.029013142291388537 0.024835288332248195 0.01167905472058368 -0.04961021098773985 0.017948673646575177 -36.65879659381692 0.022010573955248934 -0.00756201165189853 0.021057010305078953 -0.013398972181460633 0.0026712706828419122 -0.017595619743062795 0.014304559919064389 -0.002744198291242344 -19.759514227024614 0.0022891192050396923 -0.040584081620228335 -0.04667786160953118 0.03112523787666387 -0.04548483018884888 0.011515769641529556 0.006875370633447058 0.009131567516601082 24.01994382924965 0.029208898601045682 -0.002444099190186562 28.822615541997145 -0.0308859231596274 -0.0011159725574896168 28.829374677924005 -0.0014984126029039119 -0.03545513490667656 8.087835107361357 1.68782644103453 12.893459965514932 -70.4156779097441 1.2407139308694035 -16.73247740235397 -26.706169132077125 -14.263094164801366 -53.448107346137576 0.4278260824000382 -0.05575532064171554 -1.0213255016512772 -0.45990753775358 0.08635570230714808 -8.137932212563184 0.02126795736466655 -0.01376921810118325 44.545598346430005 -0.04702188863455845 0.04566230113685735 44.61251528406612 12.460835220619622 0.017609854717264586 -0.0359736411146575 -0.04661996546147542 0.006551051614143704 -0.01575457651443626 0.03667869369881443 -0.018734583177204174 0.022421115098272985 11.062241017650582 -0.02572534971639438 -0.0028384340907922 -0.01357372214462771 -0.04574144994133485 -0.049826831057666554 -0.025909721768508476 -0.005202347157865536 0.01816777769862408 4.775090500915857 0.011209683178297137 0.042515429551090944 -0.01890541652562514 -0.001966088735564645 0.012179847498935458 -0.02416426632822819 -0.00984984751754374 0.03723398169567521 -5.621067430676782 -0.011070124253318414 0.012695754123053344 -6.714681293826122 0.002704902449806733 0.049290806520948444 -6.683508454697099 -0.02190300555110729 0.044121485129934954 -0.04056286591666449 -0.020815856942613297 -0.03564828655027062 8.076873776811029 3.512915247051916 -19.241670160111354 0.003717503403287997 10.419902352233212 -0.012149415421776073 -5.5716877145196655 -15.648209601126618 3.217702269708507 -0.022512388285316248 -0.002118293739149421 -0.026751543891247485 -0.04702637110542791 4.66071202837464 -0.03190373079244934 12.478092315427745 -8.260629748331885 6.880868219748601 -0.0025447038692871728 46.3342972386836 0.034580856621113217 -4.309711803657143 -14.735543039891793 -3.827042020820534 -0.04811357645032275 -0.0038695843330977995 0.04983163228197972 0.0200368599978166 -10.774873180026573 0.018966659751030346 
